<?xml version="1.0" standalone="no"?>
<!DOCTYPE svg PUBLIC "-//W3C//DTD SVG 1.1//EN" "http://www.w3.org/Graphics/SVG/1.1/DTD/svg11.dtd" >
<svg xmlns="http://www.w3.org/2000/svg">
<metadata>
This is a custom SVG webfont generated by Font Squirrel.
</metadata>
<defs>
<font id="webfontYVcws4FK" horiz-adv-x="575" >
<font-face units-per-em="1000" ascent="800" descent="-200" />
<missing-glyph horiz-adv-x="500" />
<glyph unicode=" " />
<glyph unicode="!" d="M293 57l-62 -55l-47 55l62 55zM315 198l-65 -57l-48 57l18 131l65 56l48 -56zM353 471l-64 -56l-49 56l38 270l65 57l48 -57z" />
<glyph unicode="&#x22;" d="M251 600l-66 -57l-49 57l14 96l65 57l49 -57zM425 600l-65 -57l-49 57l13 96l66 57l49 -57z" />
<glyph unicode="$" d="M127 128l-65 -57l-49 57l2 9l64 57l49 -57zM404 57l-65 -57h-215l-48 57l64 56h37l61 -70l80 70h37zM485 128l-64 -57l-49 57l28 201l65 56l48 -56zM452 400l-64 -57h-37l-49 57l65 57h37zM273 400l-65 -57h-37l-48 57l64 57h37zM176 471l-65 -56l-48 56l28 201l65 57 l48 -57zM500 743l-64 -56h-37l-61 70l-80 -70h-37l-49 56l65 57h215zM560 663l-64 -57l-49 57l1 9l65 57l49 -57zM354 471l-64 -56l-49 56l28 201l65 57l48 -57zM306 128l-65 -57l-48 57l28 201l64 56l49 -56z" />
<glyph unicode="'" d="M338 600l-65 -57l-49 57l13 96l65 57l49 -57z" />
<glyph unicode="(" d="M435 743l-64 -56h-25l-49 56l65 57h25zM301 471l-69 -61h-53l37 262l65 57l48 -57zM253 128l-65 -57l-48 57l37 262h52l52 -61zM339 57l-65 -57h-24l-49 57l64 56h25z" />
<glyph unicode=")" d="M374 743l-64 -56h-25l-49 56l65 57h24zM398 410h-52l-52 61l28 201l65 57l48 -57zM359 128l-65 -57l-48 57l28 201l69 61h53zM278 57l-65 -57h-25l-48 57l64 56h25z" />
<glyph unicode="*" d="M279 411h-69l-18 20l10 69h69l18 -20zM391 431l-23 -20h-69l10 69l23 20h69zM373 301h-69l-18 20l10 69h69l18 -20zM266 321l-23 -20h-69l10 69l23 20h69z" />
<glyph unicode="+" d="M355 472l-65 -57l-50 57l11 73l65 57l49 -57zM485 400l-65 -57h-69l-49 57l65 57h69zM273 400l-65 -57h-69l-49 57l65 57h69zM324 255l-65 -57l-49 57l10 73l65 57l50 -57z" />
<glyph unicode="," d="M348 61l-129 -113l24 170l64 57l49 -57z" />
<glyph unicode="." d="M340 61l-64 -57l-49 57l8 57l64 57l49 -57z" />
<glyph unicode="/" d="M550 697l-195 -287h-56l18 128l180 262h67zM258 262l-180 -262h-67l14 103l195 287h56z" />
<glyph unicode="0" d="M127 128l-64 -57l-49 57l28 201l65 56l48 -56zM175 471l-64 -56l-49 56l28 201l65 57l49 -57zM500 743l-65 -56h-215l-48 56l64 57h215zM533 471l-65 -56l-48 56l28 201l64 57l49 -57zM485 128l-65 -57l-49 57l29 201l64 56l49 -56zM403 57l-64 -57h-215l-49 57l65 56 h215z" />
<glyph unicode="1" d="M379 472l-65 -57l-49 57l37 269l66 57l49 -57zM253 569l-57 -49l-38 44l8 58l108 94zM321 59l-66 -57l-50 47l39 279l66 57l49 -57z" />
<glyph unicode="2" d="M210 663l-64 -57l-49 57l1 9l65 57l49 -57zM508 743l-65 -56h-215l-48 56l64 57h215zM541 471l-65 -56l-48 56l28 201l64 57l49 -57zM461 400l-65 -57h-216l-49 57l65 57h216zM135 128l-129 -113l44 316l65 57l49 -57zM461 0h-442l129 113h216z" />
<glyph unicode="3" d="M517 471l-65 -56l-48 56l28 201l64 57l49 -57zM484 743l-65 -56h-244l-49 56l65 57h244zM436 400l-65 -57h-187l-48 57l64 57h187zM469 128l-65 -57l-49 57l29 201l64 56l49 -56zM387 57l-64 -57h-244l-49 57l64 56h245z" />
<glyph unicode="4" d="M504 471l-65 -56l-48 56l38 270l64 57l49 -57zM146 471l-64 -56l-49 56l31 216l64 57l49 -57zM423 400l-65 -57h-216l-49 57l65 57h216zM446 59l-65 -57l-48 57l38 270l64 56l49 -56z" />
<glyph unicode="5" d="M563 800l-129 -113h-216l-97 113h442zM174 471l-71 -61h-52l53 375l98 -114zM451 400l-65 -57h-216l-49 57l65 57h216zM483 128l-64 -57l-49 57l29 201l64 56l49 -56zM401 57l-64 -57h-215l-49 57l64 56h215zM125 128l-65 -57l-48 57l1 9l65 57l48 -57z" />
<glyph unicode="6" d="M524 743l-65 -56h-215l-48 56l64 57h215zM200 471l-70 -61h-52l37 262l64 57l49 -57zM151 128l-64 -57l-49 57l37 262h52l53 -61zM427 57l-64 -57h-215l-49 57l65 56h215zM509 128l-65 -57l-49 57l29 201l64 56l49 -56zM476 400l-65 -57h-216l-49 57l65 57h216z" />
<glyph unicode="7" d="M532 743l-64 -56h-361l-49 56l65 57h361zM431 465l-45 -55h-55l14 98l112 158h2zM292 277l-182 -277h-67l14 103l196 287h55z" />
<glyph unicode="8" d="M500 743l-65 -56h-215l-48 56l64 57h215zM175 471l-64 -56l-49 56l28 201l65 57l49 -57zM127 128l-64 -57l-49 57l28 201l65 56l48 -56zM403 57l-64 -57h-215l-49 57l65 56h215zM485 128l-65 -57l-49 57l29 201l64 56l49 -56zM533 471l-65 -56l-48 56l28 201l64 57 l49 -57zM452 400l-65 -57h-216l-49 57l65 57h216z" />
<glyph unicode="9" d="M379 57l-64 -57h-215l-49 57l65 56h215zM460 128l-64 -57l-49 57l28 201l70 61h52zM500 410h-52l-53 61l29 201l64 57l49 -57zM476 743l-65 -56h-215l-48 56l64 57h215zM151 471l-64 -56l-49 56l28 201l65 57l49 -57zM429 400l-65 -57h-216l-49 57l65 57h216z" />
<glyph unicode=":" d="M356 287l-64 -57l-49 57l8 57l65 57l48 -57zM324 59l-65 -57l-48 57l8 57l64 57l49 -57z" />
<glyph unicode=";" d="M364 287l-65 -57l-48 57l8 57l64 57l49 -57zM332 61l-129 -113l24 170l65 57l48 -57z" />
<glyph unicode="&#x3c;" d="M351 524l-68 -114h-69l14 98l148 203h2zM290 89h-2l-91 203l14 98h69l37 -114z" />
<glyph unicode="=" d="M476 393l-64 -56h-217l-48 56l64 57h217zM429 57l-65 -57h-217l-48 57l64 56h217z" />
<glyph unicode="&#x3e;" d="M364 410h-69l-37 114l27 187h2l91 -203zM347 292l-148 -203h-2l27 187l68 114h69z" />
<glyph unicode="?" d="M414 751l-73 -64h-200l-48 56l64 57h215zM454 471l-65 -56l-61 71l26 186l73 64l55 -64zM373 400l-65 -57h-37l-48 57l82 72h6zM237 201l-65 -56l-48 56l17 128l65 56l49 -56zM217 59l-65 -57l-49 57l65 56z" />
<glyph unicode="A" d="M120 59l-64 -57l-49 57l47 331h52l52 -61zM180 471l-70 -61h-53l36 261l66 58l49 -57zM505 743l-64 -56h-215l-49 56l65 57h215zM531 410h-54l-52 61l28 201l66 58l49 -58zM481 59l-64 -57l-49 57l38 270l70 61h52zM457 400l-64 -57h-217l-48 57l64 57h216z" />
<glyph unicode="B" d="M134 128l-129 -113l53 375h52l53 -61zM183 471l-70 -61h-52l53 375l97 -113zM508 743l-64 -56h-216l-98 113h330zM541 471l-64 -56l-49 56l28 201l65 57l49 -57zM460 400l-64 -57h-217l-48 57l64 57h216zM493 128l-64 -57l-49 57l28 201l65 56l48 -56zM412 57l-65 -57 h-329l129 113h216z" />
<glyph unicode="C" d="M560 663l-65 -57l-48 57l1 9l64 57l49 -57zM500 743l-65 -56h-215l-48 56l64 57h215zM175 471l-69 -61h-52l36 262l65 57l49 -57zM127 128l-64 -57l-49 57l37 262h52l52 -61zM403 57l-64 -57h-215l-49 57l65 56h215zM485 128l-65 -57l-49 57l2 9l64 57l49 -57z" />
<glyph unicode="D" d="M134 128l-129 -113l53 375h52l53 -61zM183 471l-70 -61h-52l53 375l97 -113zM508 743l-64 -56h-216l-98 113h330zM533 410h-53l-52 61l28 201l65 57l49 -57zM493 128l-64 -57l-49 57l28 201l70 61h52zM412 57l-65 -57h-329l129 113h216z" />
<glyph unicode="E" d="M530 743l-64 -56h-215l-49 56l65 57h215zM206 471l-69 -61h-53l37 262l65 57l48 -57zM424 400l-65 -57h-158l-48 57l64 57h158zM158 128l-65 -57l-48 57l36 262h53l52 -61zM434 57l-65 -57h-215l-48 57l64 56h215z" />
<glyph unicode="F" d="M535 743l-64 -56h-215l-49 56l65 57h215zM211 471l-70 -61h-52l37 262l64 57l49 -57zM428 400l-64 -57h-158l-48 57l64 57h158zM153 59l-65 -57l-48 57l46 331h53l52 -61z" />
<glyph unicode="G" d="M516 743l-65 -56h-215l-48 56l64 57h215zM192 471l-70 -61h-52l37 262l64 57l49 -57zM143 128l-64 -57l-49 57l37 262h52l53 -61zM420 57l-65 -57h-215l-49 57l65 56h215zM501 128l-65 -57l-48 57l28 201l129 113zM532 457l-129 -114h-37l-48 57l64 57h150z" />
<glyph unicode="H" d="M524 410h-52l-52 61l38 270l64 57l49 -57zM175 471l-69 -61h-52l46 331l65 57l48 -57zM452 400l-65 -57h-216l-49 57l65 57h216zM475 59l-65 -57l-48 57l38 270l69 61h52zM117 59l-64 -57l-49 57l47 331h52l52 -61z" />
<glyph unicode="I" d="M354 471l-64 -56l-49 56l38 270l64 57l49 -57zM296 59l-64 -57l-49 57l38 270l64 56l49 -56z" />
<glyph unicode="J" d="M520 410h-52l-53 61l38 272l65 57l49 -57zM480 128l-64 -57l-49 57l28 201l70 61h52zM398 57l-65 -57h-215l-48 57l64 56h215zM122 128l-65 -57l-49 57l2 9l64 57l49 -57z" />
<glyph unicode="K" d="M551 683l-209 -273h-46l-42 49l260 341h53zM179 471l-70 -61h-52l46 331l65 57l49 -57zM276 400l-65 -57h-37l-48 57l64 57h37zM455 0h-53l-165 341l56 49h46l133 -273zM121 59l-65 -57l-48 57l46 331h52l53 -61z" />
<glyph unicode="L" d="M254 471l-69 -61h-52l46 331l65 57l48 -57zM206 128l-65 -57l-48 57l37 262h52l52 -61zM482 57l-64 -57h-215l-49 57l65 56h215z" />
<glyph unicode="M" d="M525 410h-52l-53 62l38 271l65 57l49 -57zM401 480l-62 -70h-40l16 114l112 159h2zM278 410h-40l-42 70l28 203h2l68 -159zM175 472l-70 -62h-53l47 333l65 57l49 -57zM476 57l-65 -57l-49 57l38 271l70 62h53zM117 57l-65 -57l-49 57l47 333h52l53 -62z" />
<glyph unicode="N" d="M117 59l-64 -57l-49 57l47 331h52l52 -61zM175 471l-69 -61h-52l46 331l65 57l48 -57zM399 473h-61l-123 142l20 145h22l157 -183zM524 410h-52l-52 61l38 270l64 57l49 -57zM475 59l-65 -57l-48 57l38 270l69 61h52z" />
<glyph unicode="O" d="M127 128l-64 -57l-49 57l37 262h52l52 -61zM175 471l-69 -61h-52l36 262l65 57l49 -57zM500 743l-65 -56h-215l-48 56l64 57h215zM524 410h-52l-52 61l28 201l64 57l49 -57zM485 128l-65 -57l-49 57l29 201l69 61h52zM403 57l-64 -57h-215l-49 57l65 56h215z" />
<glyph unicode="P" d="M539 471l-65 -56l-48 56l28 201l64 57l49 -57zM506 743l-65 -56h-216l-97 113h329zM180 471l-69 -61h-52l52 375l97 -113zM458 400l-65 -57h-216l-49 57l65 57h216zM121 59l-64 -57l-49 57l46 331h53l52 -61z" />
<glyph unicode="Q" d="M127 128l-64 -57l-49 57l37 262h52l52 -61zM175 471l-69 -61h-52l36 262l65 57l49 -57zM500 743l-65 -56h-215l-48 56l64 57h215zM524 410h-52l-52 61l28 201l64 57l49 -57zM485 128l-65 -57l-49 57l29 201l69 61h52zM403 57l-64 -57h-215l-49 57l65 56h215zM351 145 l-68 55l22 153l68 -54z" />
<glyph unicode="R" d="M539 471l-65 -56l-48 56l28 201l64 57l49 -57zM506 743l-65 -56h-216l-97 113h329zM180 471l-69 -61h-52l52 375l97 -113zM458 400l-65 -57h-216l-49 57l65 57h216zM473 0h-114l-185 283l6 40h110l188 -287zM121 59l-64 -57l-49 57l46 331h53l52 -61z" />
<glyph unicode="S" d="M560 663l-64 -57l-49 57l1 9l65 57l49 -57zM500 743l-64 -56h-215l-49 56l65 57h215zM176 471l-65 -56l-48 56l28 201l65 57l48 -57zM452 400l-64 -57h-217l-48 57l64 57h217zM485 128l-64 -57l-49 57l28 201l65 56l48 -56zM403 57l-65 -57h-215l-48 57l64 56h215z M127 128l-65 -57l-49 57l2 9l64 57l49 -57z" />
<glyph unicode="T" d="M510 743l-64 -56h-96l-61 70l-80 -70h-96l-48 56l64 57h333zM305 471l-64 -56l-49 56l28 201l65 57l48 -57zM247 59l-64 -57l-49 57l38 270l65 56l48 -56z" />
<glyph unicode="U" d="M171 471l-70 -61h-52l46 331l65 57l48 -57zM122 128l-64 -57l-49 57l37 262h52l53 -61zM398 57l-64 -57h-215l-49 57l65 56h215zM480 128l-65 -57l-48 57l28 201l69 61h52zM519 410h-52l-52 61l38 270l64 57l49 -57z" />
<glyph unicode="V" d="M505 410h-97l-12 30l42 301l64 57l49 -57zM151 440l-20 -30h-97l47 331l64 57l49 -57zM496 347l-235 -347h-40l23 158l145 232h113zM201 0h-40l-137 347l6 43h113l80 -232z" />
<glyph unicode="W" d="M525 409h-53l-52 61l38 271l65 57l49 -57zM175 470l-70 -61h-52l47 332l64 57l49 -57zM475 57l-64 -57l-49 57l38 271l70 61h52zM350 117h-2l-68 158l16 114h40l42 -69zM259 275l-112 -158h-2l28 203l62 69h40zM117 57l-65 -57l-49 57l47 332h53l52 -61z" />
<glyph unicode="X" d="M548 682l-179 -272h-70l16 113l182 277h67zM279 410h-70l-103 272l17 118h68l104 -277zM452 0h-68l-104 276l16 114h70l103 -272zM260 276l-182 -276h-67l16 118l179 272h70z" />
<glyph unicode="Y" d="M519 727l-186 -318h-85l14 99l169 292h98zM227 409h-85l-96 318l10 73h98l87 -292zM245 57l-65 -57l-49 57l38 271l65 56l49 -56z" />
<glyph unicode="Z" d="M531 743l-65 -56h-245l-49 56l65 57h245zM450 508l-95 -98h-56l16 113l125 143h32zM260 277l-125 -143h-32l22 158l95 98h56zM404 57l-65 -57h-246l-49 57l65 56h246z" />
<glyph unicode="[" d="M467 778l-103 -91h-37l-97 113h240zM282 471l-70 -61h-52l53 375l97 -113zM234 128l-129 -113l52 375h53l52 -61zM358 0h-241l129 113h37l78 -91z" />
<glyph unicode="\" d="M279 410h-56l-114 287l14 103h68l106 -262zM452 0h-68l-106 262l18 128h56l114 -287z" />
<glyph unicode="]" d="M458 800l-129 -113h-37l-78 91l3 22h241zM418 410h-53l-52 61l28 201l129 113zM362 15l-97 113l28 201l70 61h52zM345 0h-240l3 22l103 91h37z" />
<glyph unicode="_" d="M452 57l-64 -57h-217l-48 57l64 56h217z" />
<glyph unicode="a" d="M120 59l-64 -57l-49 57l47 331h52l52 -61zM180 471l-70 -61h-53l36 261l66 58l49 -57zM505 743l-64 -56h-215l-49 56l65 57h215zM531 410h-54l-52 61l28 201l66 58l49 -58zM481 59l-64 -57l-49 57l38 270l70 61h52zM457 400l-64 -57h-217l-48 57l64 57h216z" />
<glyph unicode="b" d="M134 128l-129 -113l53 375h52l53 -61zM183 471l-70 -61h-52l53 375l97 -113zM508 743l-64 -56h-216l-98 113h330zM541 471l-64 -56l-49 56l28 201l65 57l49 -57zM460 400l-64 -57h-217l-48 57l64 57h216zM493 128l-64 -57l-49 57l28 201l65 56l48 -56zM412 57l-65 -57 h-329l129 113h216z" />
<glyph unicode="c" d="M560 663l-65 -57l-48 57l1 9l64 57l49 -57zM500 743l-65 -56h-215l-48 56l64 57h215zM175 471l-69 -61h-52l36 262l65 57l49 -57zM127 128l-64 -57l-49 57l37 262h52l52 -61zM403 57l-64 -57h-215l-49 57l65 56h215zM485 128l-65 -57l-49 57l2 9l64 57l49 -57z" />
<glyph unicode="d" d="M134 128l-129 -113l53 375h52l53 -61zM183 471l-70 -61h-52l53 375l97 -113zM508 743l-64 -56h-216l-98 113h330zM533 410h-53l-52 61l28 201l65 57l49 -57zM493 128l-64 -57l-49 57l28 201l70 61h52zM412 57l-65 -57h-329l129 113h216z" />
<glyph unicode="e" d="M530 743l-64 -56h-215l-49 56l65 57h215zM206 471l-69 -61h-53l37 262l65 57l48 -57zM424 400l-65 -57h-158l-48 57l64 57h158zM158 128l-65 -57l-48 57l36 262h53l52 -61zM434 57l-65 -57h-215l-48 57l64 56h215z" />
<glyph unicode="f" d="M535 743l-64 -56h-215l-49 56l65 57h215zM211 471l-70 -61h-52l37 262l64 57l49 -57zM428 400l-64 -57h-158l-48 57l64 57h158zM153 59l-65 -57l-48 57l46 331h53l52 -61z" />
<glyph unicode="g" d="M516 743l-65 -56h-215l-48 56l64 57h215zM192 471l-70 -61h-52l37 262l64 57l49 -57zM143 128l-64 -57l-49 57l37 262h52l53 -61zM420 57l-65 -57h-215l-49 57l65 56h215zM501 128l-65 -57l-48 57l28 201l129 113zM532 457l-129 -114h-37l-48 57l64 57h150z" />
<glyph unicode="h" d="M524 410h-52l-52 61l38 270l64 57l49 -57zM175 471l-69 -61h-52l46 331l65 57l48 -57zM452 400l-65 -57h-216l-49 57l65 57h216zM475 59l-65 -57l-48 57l38 270l69 61h52zM117 59l-64 -57l-49 57l47 331h52l52 -61z" />
<glyph unicode="i" d="M354 471l-64 -56l-49 56l38 270l64 57l49 -57zM296 59l-64 -57l-49 57l38 270l64 56l49 -56z" />
<glyph unicode="j" d="M520 410h-52l-53 61l38 272l65 57l49 -57zM480 128l-64 -57l-49 57l28 201l70 61h52zM398 57l-65 -57h-215l-48 57l64 56h215zM122 128l-65 -57l-49 57l2 9l64 57l49 -57z" />
<glyph unicode="k" d="M551 683l-209 -273h-46l-42 49l260 341h53zM179 471l-70 -61h-52l46 331l65 57l49 -57zM276 400l-65 -57h-37l-48 57l64 57h37zM455 0h-53l-165 341l56 49h46l133 -273zM121 59l-65 -57l-48 57l46 331h52l53 -61z" />
<glyph unicode="l" d="M254 471l-69 -61h-52l46 331l65 57l48 -57zM206 128l-65 -57l-48 57l37 262h52l52 -61zM482 57l-64 -57h-215l-49 57l65 56h215z" />
<glyph unicode="m" d="M525 410h-52l-53 62l38 271l65 57l49 -57zM401 480l-62 -70h-40l16 114l112 159h2zM278 410h-40l-42 70l28 203h2l68 -159zM175 472l-70 -62h-53l47 333l65 57l49 -57zM476 57l-65 -57l-49 57l38 271l70 62h53zM117 57l-65 -57l-49 57l47 333h52l53 -62z" />
<glyph unicode="n" d="M117 59l-64 -57l-49 57l47 331h52l52 -61zM175 471l-69 -61h-52l46 331l65 57l48 -57zM399 473h-61l-123 142l20 145h22l157 -183zM524 410h-52l-52 61l38 270l64 57l49 -57zM475 59l-65 -57l-48 57l38 270l69 61h52z" />
<glyph unicode="o" d="M127 128l-64 -57l-49 57l37 262h52l52 -61zM175 471l-69 -61h-52l36 262l65 57l49 -57zM500 743l-65 -56h-215l-48 56l64 57h215zM524 410h-52l-52 61l28 201l64 57l49 -57zM485 128l-65 -57l-49 57l29 201l69 61h52zM403 57l-64 -57h-215l-49 57l65 56h215z" />
<glyph unicode="p" d="M539 471l-65 -56l-48 56l28 201l64 57l49 -57zM506 743l-65 -56h-216l-97 113h329zM180 471l-69 -61h-52l52 375l97 -113zM458 400l-65 -57h-216l-49 57l65 57h216zM121 59l-64 -57l-49 57l46 331h53l52 -61z" />
<glyph unicode="q" d="M127 128l-64 -57l-49 57l37 262h52l52 -61zM175 471l-69 -61h-52l36 262l65 57l49 -57zM500 743l-65 -56h-215l-48 56l64 57h215zM524 410h-52l-52 61l28 201l64 57l49 -57zM485 128l-65 -57l-49 57l29 201l69 61h52zM403 57l-64 -57h-215l-49 57l65 56h215zM351 145 l-68 55l22 153l68 -54z" />
<glyph unicode="r" d="M539 471l-65 -56l-48 56l28 201l64 57l49 -57zM506 743l-65 -56h-216l-97 113h329zM180 471l-69 -61h-52l52 375l97 -113zM458 400l-65 -57h-216l-49 57l65 57h216zM473 0h-114l-185 283l6 40h110l188 -287zM121 59l-64 -57l-49 57l46 331h53l52 -61z" />
<glyph unicode="s" d="M560 663l-64 -57l-49 57l1 9l65 57l49 -57zM500 743l-64 -56h-215l-49 56l65 57h215zM176 471l-65 -56l-48 56l28 201l65 57l48 -57zM452 400l-64 -57h-217l-48 57l64 57h217zM485 128l-64 -57l-49 57l28 201l65 56l48 -56zM403 57l-65 -57h-215l-48 57l64 56h215z M127 128l-65 -57l-49 57l2 9l64 57l49 -57z" />
<glyph unicode="t" d="M510 743l-64 -56h-96l-61 70l-80 -70h-96l-48 56l64 57h333zM305 471l-64 -56l-49 56l28 201l65 57l48 -57zM247 59l-64 -57l-49 57l38 270l65 56l48 -56z" />
<glyph unicode="u" d="M171 471l-70 -61h-52l46 331l65 57l48 -57zM122 128l-64 -57l-49 57l37 262h52l53 -61zM398 57l-64 -57h-215l-49 57l65 56h215zM480 128l-65 -57l-48 57l28 201l69 61h52zM519 410h-52l-52 61l38 270l64 57l49 -57z" />
<glyph unicode="v" d="M505 410h-97l-12 30l42 301l64 57l49 -57zM151 440l-20 -30h-97l47 331l64 57l49 -57zM496 347l-235 -347h-40l23 158l145 232h113zM201 0h-40l-137 347l6 43h113l80 -232z" />
<glyph unicode="w" d="M525 409h-53l-52 61l38 271l65 57l49 -57zM175 470l-70 -61h-52l47 332l64 57l49 -57zM475 57l-64 -57l-49 57l38 271l70 61h52zM350 117h-2l-68 158l16 114h40l42 -69zM259 275l-112 -158h-2l28 203l62 69h40zM117 57l-65 -57l-49 57l47 332h53l52 -61z" />
<glyph unicode="x" d="M548 682l-179 -272h-70l16 113l182 277h67zM279 410h-70l-103 272l17 118h68l104 -277zM452 0h-68l-104 276l16 114h70l103 -272zM260 276l-182 -276h-67l16 118l179 272h70z" />
<glyph unicode="y" d="M519 727l-186 -318h-85l14 99l169 292h98zM227 409h-85l-96 318l10 73h98l87 -292zM245 57l-65 -57l-49 57l38 271l65 56l49 -56z" />
<glyph unicode="z" d="M531 743l-65 -56h-245l-49 56l65 57h245zM450 508l-95 -98h-56l16 113l125 143h32zM260 277l-125 -143h-32l22 158l95 98h56zM404 57l-65 -57h-246l-49 57l65 56h246z" />
<glyph unicode="|" d="M354 471l-64 -56l-49 56l46 329l65 57l48 -57zM288 0l-65 -57l-48 57l46 329l64 56l49 -56z" />
<glyph unicode="&#xa0;" />
<glyph unicode="&#xaa;" d="M120 59l-64 -57l-49 57l47 331h52l52 -61zM180 471l-70 -61h-53l36 261l66 58l49 -57zM505 743l-64 -56h-215l-49 56l65 57h215zM531 410h-54l-52 61l28 201l66 58l49 -58zM481 59l-64 -57l-49 57l38 270l70 61h52zM457 400l-64 -57h-217l-48 57l64 57h216z" />
<glyph unicode="&#xb2;" d="M210 663l-64 -57l-49 57l1 9l65 57l49 -57zM508 743l-65 -56h-215l-48 56l64 57h215zM541 471l-65 -56l-48 56l28 201l64 57l49 -57zM461 400l-65 -57h-216l-49 57l65 57h216zM135 128l-129 -113l44 316l65 57l49 -57zM461 0h-442l129 113h216z" />
<glyph unicode="&#xb3;" d="M517 471l-65 -56l-48 56l28 201l64 57l49 -57zM484 743l-65 -56h-244l-49 56l65 57h244zM436 400l-65 -57h-187l-48 57l64 57h187zM469 128l-65 -57l-49 57l29 201l64 56l49 -56zM387 57l-64 -57h-244l-49 57l64 56h245z" />
<glyph unicode="&#xb9;" d="M379 472l-65 -57l-49 57l37 269l66 57l49 -57zM253 569l-57 -49l-38 44l8 58l108 94zM321 59l-66 -57l-50 47l39 279l66 57l49 -57z" />
<glyph unicode="&#xba;" d="M127 128l-64 -57l-49 57l37 262h52l52 -61zM175 471l-69 -61h-52l36 262l65 57l49 -57zM500 743l-65 -56h-215l-48 56l64 57h215zM524 410h-52l-52 61l28 201l64 57l49 -57zM485 128l-65 -57l-49 57l29 201l69 61h52zM403 57l-64 -57h-215l-49 57l65 56h215z" />
<glyph unicode="&#x152;" horiz-adv-x="1150" d="M1105 743l-64 -56h-215l-49 56l65 57h215zM781 471l-69 -61h-53l37 262l65 57l48 -57zM999 400l-65 -57h-158l-48 57l64 57h158zM733 128l-65 -57l-48 57l36 262h53l52 -61zM1009 57l-65 -57h-215l-48 57l64 56h215zM127 128l-64 -57l-49 57l37 262h52l52 -61zM175 471 l-69 -61h-52l36 262l65 57l49 -57zM500 743l-65 -56h-215l-48 56l64 57h215zM524 410h-52l-52 61l28 201l64 57l49 -57zM485 128l-65 -57l-49 57l29 201l69 61h52zM403 57l-64 -57h-215l-49 57l65 56h215z" />
<glyph unicode="&#x153;" horiz-adv-x="1150" d="M1105 743l-64 -56h-215l-49 56l65 57h215zM781 471l-69 -61h-53l37 262l65 57l48 -57zM999 400l-65 -57h-158l-48 57l64 57h158zM733 128l-65 -57l-48 57l36 262h53l52 -61zM1009 57l-65 -57h-215l-48 57l64 56h215zM127 128l-64 -57l-49 57l37 262h52l52 -61zM175 471 l-69 -61h-52l36 262l65 57l49 -57zM500 743l-65 -56h-215l-48 56l64 57h215zM524 410h-52l-52 61l28 201l64 57l49 -57zM485 128l-65 -57l-49 57l29 201l69 61h52zM403 57l-64 -57h-215l-49 57l65 56h215z" />
<glyph unicode="&#x2000;" horiz-adv-x="428" />
<glyph unicode="&#x2001;" horiz-adv-x="857" />
<glyph unicode="&#x2002;" horiz-adv-x="428" />
<glyph unicode="&#x2003;" horiz-adv-x="857" />
<glyph unicode="&#x2004;" horiz-adv-x="285" />
<glyph unicode="&#x2005;" horiz-adv-x="214" />
<glyph unicode="&#x2006;" horiz-adv-x="142" />
<glyph unicode="&#x2007;" horiz-adv-x="142" />
<glyph unicode="&#x2008;" horiz-adv-x="107" />
<glyph unicode="&#x2009;" horiz-adv-x="171" />
<glyph unicode="&#x200a;" horiz-adv-x="47" />
<glyph unicode="&#x2013;" horiz-adv-x="500" d="M100 250v100h300v-100h-300z" />
<glyph unicode="&#x2014;" horiz-adv-x="1000" d="M100 250v100h800v-100h-800z" />
<glyph unicode="&#x2019;" d="M338 600l-65 -57l-49 57l13 96l65 57l49 -57z" />
<glyph unicode="&#x201c;" d="M251 600l-66 -57l-49 57l14 96l65 57l49 -57zM425 600l-65 -57l-49 57l13 96l66 57l49 -57z" />
<glyph unicode="&#x201d;" d="M251 600l-66 -57l-49 57l14 96l65 57l49 -57zM425 600l-65 -57l-49 57l13 96l66 57l49 -57z" />
<glyph unicode="&#x2026;" horiz-adv-x="1725" d="M1490 61l-64 -57l-49 57l8 57l64 57l49 -57zM915 61l-64 -57l-49 57l8 57l64 57l49 -57zM340 61l-64 -57l-49 57l8 57l64 57l49 -57z" />
<glyph unicode="&#x202f;" horiz-adv-x="171" />
<glyph unicode="&#x2039;" d="M351 524l-68 -114h-69l14 98l148 203h2zM290 89h-2l-91 203l14 98h69l37 -114z" />
<glyph unicode="&#x203a;" d="M364 410h-69l-37 114l27 187h2l91 -203zM347 292l-148 -203h-2l27 187l68 114h69z" />
<glyph unicode="&#x205f;" horiz-adv-x="214" />
<glyph unicode="&#x2122;" horiz-adv-x="1150" d="M1100 410h-52l-53 62l38 271l65 57l49 -57zM976 480l-62 -70h-40l16 114l112 159h2zM853 410h-40l-42 70l28 203h2l68 -159zM750 472l-70 -62h-53l47 333l65 57l49 -57zM1051 57l-65 -57l-49 57l38 271l70 62h53zM692 57l-65 -57l-49 57l47 333h52l53 -62zM510 743 l-64 -56h-96l-61 70l-80 -70h-96l-48 56l64 57h333zM305 471l-64 -56l-49 56l28 201l65 57l48 -57zM247 59l-64 -57l-49 57l38 270l65 56l48 -56z" />
</font>
</defs>
</svg>
